HIERARCHY
ROOT root
{
	OFFSET	0	13.1	24.9
	CHANNELS 6  Xposition Yposition Zposition Xrotation Yrotation Zrotation
	JOINT spine_1
	{
		OFFSET	0	9.99999	0
		CHANNELS 3  Xrotation Yrotation Zrotation
		JOINT spine_2
		{
			OFFSET	0	112	-10
			CHANNELS 3  Xrotation Yrotation Zrotation
			JOINT spine_3
			{
				OFFSET	0	206.5	19.3
				CHANNELS 3  Xrotation Yrotation Zrotation
				JOINT spine_4
				{
					OFFSET	0	110.4	14.6
					CHANNELS 3  Xrotation Yrotation Zrotation
					JOINT neck_1
					{
						OFFSET	0	71.8	-50.3
						CHANNELS 3  Xrotation Yrotation Zrotation
						JOINT neck_2
						{
							OFFSET	0	86.2	-25.8
							CHANNELS 3  Xrotation Yrotation Zrotation
							JOINT head_ee
							{
								OFFSET	0	179.8	-8.7
								CHANNELS 3  Xrotation Yrotation Zrotation
								End Site
								{
									OFFSET	1	0	0
								}
							}
						}
					}
					JOINT left_clavicle
					{
						OFFSET	-43.2	22.4	-70.8
						CHANNELS 3  Xrotation Yrotation Zrotation
						JOINT left_shoulder
						{
							OFFSET	-93.9	-5.79999	48.7
							CHANNELS 3  Xrotation Yrotation Zrotation
							JOINT left_elbow
							{
								OFFSET	-291.4	-30.8	15.2
								CHANNELS 3  Xrotation Yrotation Zrotation
								JOINT left_lowarm_twist
								{
									OFFSET	-110.7	-3.89999	13.6
									CHANNELS 3  Xrotation Yrotation Zrotation
									JOINT left_hand
									{
										OFFSET	-110.7	-3.89999	13.6
										CHANNELS 3  Xrotation Yrotation Zrotation
										JOINT left_ee
										{
											OFFSET	-80.8	-5.10001	12.1
											CHANNELS 3  Xrotation Yrotation Zrotation
											End Site
											{
												OFFSET	1	0	0
											}
										}
									}
								}
							}
						}
					}
					JOINT right_clavicle
					{
						OFFSET	43.2	22.4	-70.8
						CHANNELS 3  Xrotation Yrotation Zrotation
						JOINT right_shoulder
						{
							OFFSET	93.9	-5.79999	48.7
							CHANNELS 3  Xrotation Yrotation Zrotation
							JOINT right_elbow
							{
								OFFSET	291.4	-30.8	15.2
								CHANNELS 3  Xrotation Yrotation Zrotation
								JOINT right_lowarm_twist
								{
									OFFSET	110.7	-3.89999	13.6
									CHANNELS 3  Xrotation Yrotation Zrotation
									JOINT right_hand
									{
										OFFSET	110.7	-3.89999	13.6
										CHANNELS 3  Xrotation Yrotation Zrotation
										JOINT right_ee
										{
											OFFSET	80.8	-5.10001	12.1
											CHANNELS 3  Xrotation Yrotation Zrotation
											End Site
											{
												OFFSET	1	0	0
											}
										}
									}
								}
							}
						}
					}
				}
			}
		}
	}
	JOINT left_hip
	{
		OFFSET	-82.8	-127.5	0.300001
		CHANNELS 3  Xrotation Yrotation Zrotation
		JOINT left_knee
		{
			OFFSET	-28.2	-396.7	2.2
			CHANNELS 3  Xrotation Yrotation Zrotation
			JOINT left_ankle
			{
				OFFSET	-11.7	-411.3	35.4
				CHANNELS 3  Xrotation Yrotation Zrotation
				JOINT left_toes
				{
					OFFSET	0	-60	-88.6
					CHANNELS 3  Xrotation Yrotation Zrotation
					JOINT left_foot_ee
					{
						OFFSET	-22.5	-16.5	-42.2
						CHANNELS 3  Xrotation Yrotation Zrotation
						End Site
						{
							OFFSET	1	0	0
						}
					}
				}
			}
		}
	}
	JOINT right_hip
	{
		OFFSET	82.8	-127.5	0.300001
		CHANNELS 3  Xrotation Yrotation Zrotation
		JOINT right_knee
		{
			OFFSET	28.2	-396.7	2.2
			CHANNELS 3  Xrotation Yrotation Zrotation
			JOINT right_ankle
			{
				OFFSET	11.7	-411.3	35.4
				CHANNELS 3  Xrotation Yrotation Zrotation
				JOINT right_toes
				{
					OFFSET	0	-60	-88.6
					CHANNELS 3  Xrotation Yrotation Zrotation
					JOINT right_foot_ee
					{
						OFFSET	22.5	-16.5	-42.2
						CHANNELS 3  Xrotation Yrotation Zrotation
						End Site
						{
							OFFSET	1	0	0
						}
					}
				}
			}
		}
	}
}
MOTION
Frames: 13
Frame Time: 0.02
2981.67842617 699.123 -1903.88774835 4.9086672222 34.3462339298 4.03290835739 0.507337 -0.239968 -1.7768 0.509084 -0.126438 -1.78846 0.513689 0.236409 -1.77727 0.509284 -0.0471985 -1.7923 -5.17088 9.91176 1.06842 -5.1124 17.455 2.82662 -0.0 0.0 -0.0 8.19424 -5.19423 16.0131 -11.774 -36.2764 56.7739 0.690671 -18.8878 0.114885 -26.7214 -1.66197 2.95343 1.28583 -7.67236 5.43246 -0.0 0.0 -0.0 8.96556 13.1363 -17.4901 -13.0828 -7.06189 -65.8152 0.64292 17.6659 -0.0999089 57.3158 1.54087 6.85486 0.845979 5.85443 -3.2256 0.0 0.0 0.0 9.53026 14.7159 -9.00922 -19.9283 0.296486 3.02838 37.2136 -10.5132 -4.78831 -27.9132 0.0 0.0 -0.0 0.0 -0.0 13.4418 2.33105 -8.77098 -35.1861 0.189246 -5.31273 31.6241 23.6213 4.66285 -21.6115 0.0 0.0 0.0 0.0 0.0 
2975.94690385 699.123 -1898.99425335 4.99432004563 35.7554465483 3.8837774907 0.507337 -0.239968 -1.7768 0.509084 -0.126438 -1.78846 0.513689 0.236409 -1.77727 0.509284 -0.0471985 -1.7923 -5.17088 9.91176 1.06842 -5.1124 17.455 2.82662 -0.0 0.0 -0.0 8.19424 -5.19423 16.0131 -11.774 -36.2764 56.7739 0.690671 -18.8878 0.114885 -26.7214 -1.66197 2.95343 1.28583 -7.67236 5.43246 -0.0 0.0 -0.0 8.96556 13.1363 -17.4901 -13.0828 -7.06189 -65.8152 0.64292 17.6659 -0.0999089 57.3158 1.54087 6.85486 0.845979 5.85443 -3.2256 0.0 0.0 0.0 9.53026 14.7159 -9.00922 -19.9283 0.296486 3.02838 37.2136 -10.5132 -4.78831 -27.9132 0.0 0.0 -0.0 0.0 -0.0 13.4418 2.33105 -8.77098 -35.1861 0.189246 -5.31273 31.6241 23.6213 4.66285 -21.6115 0.0 0.0 0.0 0.0 0.0 
2954.95686906 697.772 -1891.33072347 4.67208540335 38.4177957909 3.57199550777 0.326972 -0.399326 -1.6574 0.328452 -0.293067 -1.67944 0.337815 0.0563861 -1.70388 0.333827 -0.213379 -1.69141 -4.33977 10.6426 1.32435 -4.24465 18.508 3.0945 -0.0 0.0 -0.0 7.00435 -7.12079 13.4977 -10.774 -38.9248 57.1562 0.791945 -21.4203 0.149787 -25.809 -1.58333 2.86688 0.887091 -6.85538 3.08029 -0.0 0.0 -0.0 8.85466 12.5089 -17.2719 -13.3695 -4.79282 -66.0508 0.631951 17.3828 -0.0966062 58.4982 1.64206 6.96767 0.753201 5.32916 -2.82048 0.0 0.0 0.0 10.218 16.1799 -9.32523 -21.2305 0.278985 3.22743 37.4494 -12.3511 -4.85639 -27.2438 0.0 0.0 -0.0 0.0 -0.0 13.3045 2.15479 -8.61019 -35.3468 0.197574 -5.33597 33.8334 26.2015 5.03975 -21.8259 0.0 0.0 0.0 0.0 0.0 
2924.61982214 698.257 -1922.79733642 5.04775357661 33.0276463605 3.42931887449 0.421629 -0.266635 -2.05491 0.423968 -0.135364 -2.0677 0.429777 0.28695 -2.05217 0.423902 -0.0406813 -2.07173 -6.6292 10.5791 1.58473 -6.6139 18.4826 3.68199 -0.0 0.0 -0.0 7.70939 -4.93067 15.0072 -8.88742 -36.3446 55.0092 0.993604 -26.206 0.231279 -29.5 -1.90985 3.20923 0.302272 -6.99295 -0.926651 -0.0 0.0 -0.0 7.91856 9.69657 -15.3486 -17.1247 -1.52341 -65.6528 0.599158 16.5313 -0.0870418 58.0022 1.59933 6.92061 0.459329 4.38612 -1.23609 0.0 0.0 0.0 7.11571 21.9215 -9.38487 -20.7736 0.285641 3.15764 38.6391 -11.6696 -4.94757 -26.0292 0.0 0.0 -0.0 0.0 -0.0 14.4474 1.61505 -7.50201 -35.6193 0.211846 -5.37533 33.9909 24.7588 4.98138 -21.8265 0.0 0.0 0.0 0.0 0.0 
2904.14248056 699.992 -1931.83051017 5.48797565573 32.5335145929 2.78709099159 0.519431 -0.35664 -2.17965 0.522048 -0.217255 -2.19791 0.53142 0.22924 -2.19669 0.524706 -0.120476 -2.20533 -8.19296 10.1188 1.15961 -8.23373 18.1005 3.39884 -0.0 0.0 -0.0 8.30097 -1.97185 16.2245 -8.26448 -36.2208 55.1225 1.05583 -27.6102 0.259444 -33.9772 -2.3346 3.59541 -0.231016 -5.2453 -3.78273 -0.0 0.0 -0.0 7.75708 9.32896 -15.0163 -17.7606 -3.94902 -64.7523 0.484916 13.5075 -0.057426 57.1151 1.52393 6.83551 0.676785 5.29556 -2.31895 0.0 0.0 0.0 3.86895 23.6188 -7.81564 -20.5618 0.288536 3.12527 38.4835 -13.2473 -4.97645 -23.5717 0.0 0.0 -0.0 0.0 -0.0 14.687 2.97557 -6.56265 -35.6232 0.212052 -5.3759 34.8053 23.1443 4.98951 -21.7093 0.0 0.0 0.0 0.0 0.0 
2875.88600192 697.979 -1951.48937934 8.55748681611 34.8299324818 -0.418360134016 0.180574 -0.399997 -1.85925 0.182453 -0.280899 -1.88092 0.19269 0.114306 -1.89834 0.187709 -0.18688 -1.89257 -9.27947 9.4803 0.607735 -9.35337 17.385 2.87122 -0.0 0.0 -0.0 8.38627 0.301345 16.3566 -7.6147 -36.2314 55.3787 1.19045 -30.5274 0.324872 -36.4346 -2.58021 3.79301 -0.606171 -4.51681 -6.00678 -0.0 0.0 -0.0 7.37443 6.6867 -14.2809 -16.5577 -11.4255 -65.0791 0.37449 10.5098 -0.0344431 57.3821 1.54648 6.86124 0.830154 7.21978 -2.54105 0.0 0.0 0.0 -0.697443 24.1026 -6.26627 -22.362 0.260107 3.40003 39.1544 -14.7815 -5.08342 -21.6863 0.0 0.0 -0.0 0.0 -0.0 18.5795 3.55308 -6.92804 -34.4031 0.149608 -5.19916 35.9948 22.3764 5.07668 -21.5133 0.0 0.0 0.0 0.0 0.0 
2838.46859043 692.502 -1973.49411943 11.170234535 34.7297081955 -2.98975106302 -0.566184 -0.346429 -1.58153 -0.564826 -0.245104 -1.60036 -0.556945 0.11243 -1.61511 -0.560556 -0.144023 -1.6126 -8.17435 10.6831 2.16611 -8.20984 18.4497 4.51462 -0.0 0.0 -0.0 7.67889 -1.8617 14.957 -8.08572 -36.5182 52.7378 1.5196 -36.9687 0.508017 -37.734 -2.71346 3.89321 -1.06833 -3.73754 -8.80482 -0.0 0.0 -0.0 7.59962 4.96299 -14.7795 -22.434 1.76625 -63.7455 0.444769 12.4254 -0.0484174 61.2672 1.88804 7.22358 0.50887 2.221 -2.47751 0.0 0.0 0.0 -5.99946 30.3599 -5.71576 -21.7791 0.270258 3.31116 37.1259 -16.8765 -4.96522 -20.0403 0.0 0.0 -0.0 0.0 -0.0 19.8952 6.82436 -5.908 -31.8675 0.0319819 -4.82792 32.9009 20.6735 4.67781 -22.4818 0.0 0.0 0.0 0.0 0.0 
2813.77307881 684.195 -2001.43145638 10.134547807 35.4002833483 -3.22503751049 -0.540176 -0.255727 -1.43547 -0.539045 -0.163876 -1.44883 -0.534101 0.157828 -1.4495 -0.537026 -0.0730493 -1.45623 -8.09829 9.99939 0.541014 -8.13763 18.3016 2.74739 -0.0 0.0 -0.0 7.76278 -2.06186 15.1279 -5.70389 -36.3137 54.2335 1.56188 -37.7268 0.533666 -40.301 -2.98323 4.08219 -1.33431 -3.79744 -10.6475 -0.0 0.0 -0.0 7.72177 5.23313 -15.0294 -16.6205 -16.2149 -63.8636 0.223613 6.32112 -0.0123475 59.188 1.70217 7.03252 0.834851 7.01649 -2.659 0.0 0.0 0.0 -7.04722 31.0896 -5.40088 -23.8874 0.229269 3.63207 37.8744 -16.0569 -5.00784 -16.6253 0.0 0.0 -0.0 0.0 -0.0 24.4931 7.49038 -4.90971 -28.4214 -0.101287 -4.31594 34.0212 17.2805 4.66996 -21.0054 0.0 0.0 0.0 0.0 0.0 
2801.0093416 681.787 -2015.97725498 9.62258555499 35.5481445643 -3.30896264182 -0.60139 -0.27396 -1.32447 -0.600434 -0.189133 -1.33921 -0.595288 0.110576 -1.34797 -0.597809 -0.103679 -1.34852 -7.42115 10.2508 0.667908 -7.43667 18.6168 2.82238 -0.0 0.0 -0.0 7.49126 -2.37683 14.5763 -5.70264 -35.8864 53.5299 1.6716 -39.6236 0.602239 -40.6004 -3.01525 4.10345 -1.46475 -3.78551 -11.5367 -0.0 0.0 -0.0 7.66766 4.1795 -14.928 -16.8231 -16.8721 -62.8777 0.20129 5.69447 -0.0100111 59.2883 1.71098 7.04189 0.823699 6.68281 -2.72501 0.0 0.0 0.0 -7.68766 32.8697 -5.25026 -24.1805 0.222637 3.67656 37.6787 -16.1023 -4.99101 -16.1083 0.0 0.0 -0.0 0.0 -0.0 24.9823 7.59736 -5.28376 -25.177 -0.198384 -3.82756 32.8268 16.6239 4.52302 -21.0331 0.0 0.0 0.0 0.0 0.0 
2793.96147793 679.619 -2029.80076984 8.38301358852 34.3665944757 -2.67102979724 -0.526368 -0.245008 -1.00643 -0.525823 -0.180473 -1.01998 -0.522184 0.0473607 -1.03474 -0.52366 -0.116642 -1.02923 -6.81578 11.4694 1.32481 -6.8072 20.3503 3.6328 -0.0 0.0 -0.0 6.68749 -3.44385 12.9328 -6.55868 -35.7665 51.882 1.69747 -40.0563 0.618811 -40.3451 -2.98794 4.08534 -1.57879 -3.34781 -12.124 -0.0 0.0 -0.0 7.75125 2.2099 -15.1049 -20.3969 -10.5852 -63.8529 0.286557 8.07945 -0.0202377 59.1007 1.69452 7.02435 1.20744 6.3771 -5.45056 0.0 0.0 0.0 -7.60562 37.5072 -5.95424 -23.2606 0.24269 3.53681 37.5289 -16.5122 -4.99088 -16.0678 0.0 0.0 -0.0 0.0 -0.0 25.4688 7.11475 -6.78389 -20.4764 -0.28967 -3.11222 31.4233 15.9388 4.35082 -21.1922 0.0 0.0 0.0 0.0 0.0 
2786.90975675 676.597 -2038.46998525 7.97140895305 34.5035952196 -2.54888355195 -0.841641 -0.219735 -0.810313 -0.841291 -0.167729 -0.822652 -0.838564 0.0212002 -0.839309 -0.83953 -0.111614 -0.832124 -5.78053 12.1222 1.43776 -5.72114 21.3464 3.69595 -0.0 0.0 -0.0 6.30975 -5.27662 12.1169 -7.94561 -33.5006 50.6083 1.81752 -41.9942 0.697624 -39.261 -2.87292 4.00708 -1.96109 -3.36588 -14.7766 -0.0 0.0 -0.0 8.16668 -0.68078 -15.9073 -21.9943 -6.97767 -63.1852 0.488735 13.6099 -0.0583213 61.1176 1.87443 7.21006 0.688967 3.84538 -3.01033 0.0 0.0 0.0 -6.89302 39.0791 -7.0392 -23.8637 0.229795 3.62848 37.9482 -18.9729 -5.12185 -16.9903 0.0 0.0 -0.0 0.0 -0.0 22.9156 5.51424 -7.85988 -10.531 -0.288321 -1.58818 27.4741 16.8954 3.93095 -22.5856 0.0 0.0 0.0 0.0 0.0 
2771.91018679 669.985 -2053.28972362 6.959721334 33.4989361148 -2.49787933869 -0.788293 -0.293098 -0.4348 -0.788227 -0.264837 -0.452569 -0.786016 -0.156961 -0.500319 -0.786289 -0.234006 -0.469252 -4.56358 13.5248 1.4074 -4.41663 23.7837 3.68874 -0.0 0.0 -0.0 5.79234 -4.02152 11.1034 -8.25778 -31.6969 50.3698 1.84172 -42.3711 0.713873 -39.5284 -2.90115 4.02658 -2.31389 -4.13953 -17.608 -0.0 0.0 -0.0 8.51794 -3.6284 -16.5046 -27.8105 1.23407 -60.6448 0.829252 22.3321 -0.163688 63.8231 2.12586 7.44907 0.257022 0.281563 -1.59908 0.0 0.0 0.0 -6.36412 43.2667 -7.89065 -24.8041 0.207768 3.7711 37.884 -21.1055 -5.20558 -17.7369 0.0 0.0 -0.0 0.0 -0.0 21.9896 4.64782 -9.27804 -1.82899 -0.0709755 -0.271702 20.4863 14.319 2.99657 -24.5714 0.0 0.0 0.0 0.0 0.0 
2775.46723021 669.985 -2057.00783757 6.91790717414 32.9746265112 -2.42159089348 -0.788293 -0.293098 -0.4348 -0.788227 -0.264837 -0.452569 -0.786016 -0.156961 -0.500319 -0.786289 -0.234006 -0.469252 -4.56358 13.5248 1.4074 -4.41663 23.7837 3.68874 -0.0 0.0 -0.0 5.79234 -4.02152 11.1034 -8.25778 -31.6969 50.3698 1.84172 -42.3711 0.713873 -39.5284 -2.90115 4.02658 -2.31389 -4.13953 -17.608 -0.0 0.0 -0.0 8.51794 -3.6284 -16.5046 -27.8105 1.23407 -60.6448 0.829252 22.3321 -0.163688 63.8231 2.12586 7.44907 0.257022 0.281563 -1.59908 0.0 0.0 0.0 -6.36412 43.2667 -7.89065 -24.8041 0.207768 3.7711 37.884 -21.1055 -5.20558 -17.7369 0.0 0.0 -0.0 0.0 -0.0 21.9896 4.64782 -9.27804 -1.82899 -0.0709755 -0.271702 20.4863 14.319 2.99657 -24.5714 0.0 0.0 0.0 0.0 0.0 
